<?xml version="1.0" standalone="no"?><!DOCTYPE svg PUBLIC "-//W3C//DTD SVG 1.1//EN" "http://www.w3.org/Graphics/SVG/1.1/DTD/svg11.dtd"><svg t="1721696748853" class="icon" viewBox="0 0 1024 1024" version="1.1" xmlns="http://www.w3.org/2000/svg" p-id="4314" width="200" height="200" xmlns:xlink="http://www.w3.org/1999/xlink"><path d="M736.64 636.64c0 126.816-224.64 382.816-224.64 382.816s-224.608-256-224.608-382.816c0-126.848 100.576-229.728 224.608-229.728S736.64 509.76 736.64 636.64zM905.216 169.696c-0.128-0.16-0.288-0.352-0.48-0.48C799.872 60.096 660.384 0 512 0 363.616 0 224.128 60.096 119.232 169.216c-8.64 8.96-13.376 20.896-13.376 33.6 0 12.672 4.704 24.576 13.344 33.536 8.64 8.96 20.096 13.92 32.32 13.92 12.192 0 23.648-4.96 32.288-13.92C271.456 145.184 388 94.976 512 94.976s240.576 50.24 328.192 141.408c8.672 8.96 20.128 13.92 32.32 13.92s23.68-4.96 32.256-13.92c8.672-8.96 13.376-20.928 13.376-33.6C918.112 190.336 913.568 178.624 905.216 169.696zM512 193.6c-93.12 0-180.672 36.224-246.496 102.08-9.408 9.408-14.592 21.888-14.592 35.168 0 13.312 5.184 25.824 14.592 35.2 9.376 9.376 21.856 14.56 35.136 14.56s25.792-5.184 35.168-14.56C382.88 318.976 445.472 293.056 512 293.056c66.56 0 129.152 25.92 176.192 72.992 9.408 9.376 21.888 14.56 35.2 14.56s25.824-5.184 35.168-14.592c19.392-19.424 19.328-50.944 0-70.336C692.672 229.856 605.12 193.6 512 193.6z" p-id="4315" fill="#d81e06"></path></svg>